<svg width="64" height="64" viewBox="0 0 64 64" fill="none" xmlns="http://www.w3.org/2000/svg">
  <defs>
    <linearGradient id="baguetteBody" x1="17" y1="22" x2="48" y2="46" gradientUnits="userSpaceOnUse">
      <stop stop-color="#F7D48A"/>
      <stop offset="1" stop-color="#D78D3A"/>
    </linearGradient>
    <linearGradient id="baguetteTop" x1="22" y1="20" x2="42" y2="34" gradientUnits="userSpaceOnUse">
      <stop stop-color="#FFF0C7"/>
      <stop offset="1" stop-color="#F3C56F"/>
    </linearGradient>
  </defs>

  <g transform="translate(32 32) rotate(-24) translate(-32 -32)">
    <ellipse cx="32" cy="34" rx="19" ry="12.5" fill="url(#baguetteBody)"/>
    <ellipse cx="32" cy="33" rx="15.5" ry="8.5" fill="url(#baguetteTop)"/>

    <path
      d="M20.5 34C20.5 27.3726 25.8726 22 32.5 22H40C45.799 22 50.5 26.701 50.5 32.5V34C50.5 40.6274 45.1274 46 38.5 46H31C25.201 46 20.5 41.299 20.5 35.5V34Z"
      fill="url(#baguetteBody)"
    />

    <path
      d="M19 31.5C19 26.2533 23.2533 22 28.5 22H38.5C43.7467 22 48 26.2533 48 31.5V33C48 38.2467 43.7467 42.5 38.5 42.5H28.5C23.2533 42.5 19 38.2467 19 33V31.5Z"
      fill="url(#baguetteTop)"
    />

    <path
      d="M25.5 26.8C24.9812 25.9888 25.2184 24.9078 26.0296 24.389L29.4979 22.1705C30.3091 21.6517 31.3901 21.8889 31.9089 22.7001C32.4277 23.5113 32.1905 24.5923 31.3793 25.1111L27.911 27.3296C27.0998 27.8484 26.0188 27.6112 25.5 26.8Z"
      fill="#C77C2A"
    />
    <path
      d="M33.1 31.1C32.5812 30.2888 32.8184 29.2078 33.6296 28.689L37.0979 26.4705C37.9091 25.9517 38.9901 26.1889 39.5089 27.0001C40.0277 27.8113 39.7905 28.8923 38.9793 29.4111L35.511 31.6296C34.6998 32.1484 33.6188 31.9112 33.1 31.1Z"
      fill="#C77C2A"
    />
    <path
      d="M28.8 37.1C28.2812 36.2888 28.5184 35.2078 29.3296 34.689L32.7979 32.4705C33.6091 31.9517 34.6901 32.1889 35.2089 33.0001C35.7277 33.8113 35.4905 34.8923 34.6793 35.4111L31.211 37.6296C30.3998 38.1484 29.3188 37.9112 28.8 37.1Z"
      fill="#C77C2A"
    />

    <ellipse cx="22.5" cy="32.5" rx="2.8" ry="6.4" fill="#E0A04F"/>
    <ellipse cx="43.8" cy="32" rx="2.6" ry="5.8" fill="#D48634"/>
  </g>
</svg>
